<svg xmlns="http://www.w3.org/2000/svg" viewBox="0 0 32 32" width="32" height="32">
  <!-- Background rounded square -->
  <rect x="1" y="1" width="30" height="30" rx="6" fill="#0F1117"/>

  <!-- Maze walls - simplified grid pattern -->
  <g stroke="#2A2F3E" stroke-width="1.5" fill="none" stroke-linecap="round">
    <!-- Outer border -->
    <rect x="5" y="5" width="22" height="22" rx="1"/>
    <!-- Horizontal walls -->
    <line x1="5" y1="12" x2="14" y2="12"/>
    <line x1="18" y1="12" x2="27" y2="12"/>
    <line x1="5" y1="20" x2="11" y2="20"/>
    <line x1="20" y1="20" x2="27" y2="20"/>
    <!-- Vertical walls -->
    <line x1="12" y1="5" x2="12" y2="9"/>
    <line x1="20" y1="5" x2="20" y2="12"/>
    <line x1="12" y1="15" x2="12" y2="20"/>
    <line x1="20" y1="15" x2="20" y2="27"/>
  </g>

  <!-- The "break" — a bold diagonal slash through the maze -->
  <line x1="8" y1="26" x2="24" y2="6" stroke="#3B82F6" stroke-width="3" stroke-linecap="round"/>

  <!-- Impact sparks at the break point -->
  <g stroke="#3B82F6" stroke-width="1.5" stroke-linecap="round" fill="none">
    <line x1="14" y1="13" x2="11" y2="10"/>
    <line x1="17" y1="14" x2="20" y2="11"/>
    <line x1="13" y1="17" x2="10" y2="19"/>
    <line x1="18" y1="18" x2="21" y2="21"/>
  </g>
</svg>
